<svg width="600" height="354" viewBox="0 0 600 354" fill="none" xmlns="http://www.w3.org/2000/svg">
<path d="M3 20.5505H597V344C597 347.866 593.866 351 590 351H9.99999C6.134 351 3 347.866 3 344V20.5505Z" stroke="#232323" stroke-width="6"/>
<path d="M0 10C0 4.47715 4.47715 0 10 0H590C595.523 0 600 4.47715 600 10V22.2123H0V10Z" fill="#232323"/>
<path fill-rule="evenodd" clip-rule="evenodd" d="M11.2499 13.5742C12.6307 13.5742 13.7499 12.4693 13.7499 11.1062C13.7499 9.74313 12.6307 8.63815 11.2499 8.63815C9.86923 8.63815 8.74994 9.74313 8.74994 11.1062C8.74994 12.4693 9.86923 13.5742 11.2499 13.5742Z" fill="#F24822"/>
<path fill-rule="evenodd" clip-rule="evenodd" d="M19.5833 13.5742C20.964 13.5742 22.0833 12.4693 22.0833 11.1062C22.0833 9.74313 20.964 8.63815 19.5833 8.63815C18.2026 8.63815 17.0833 9.74313 17.0833 11.1062C17.0833 12.4693 18.2026 13.5742 19.5833 13.5742Z" fill="#FFCD29"/>
<path fill-rule="evenodd" clip-rule="evenodd" d="M27.9166 13.5742C29.2973 13.5742 30.4166 12.4693 30.4166 11.1062C30.4166 9.74313 29.2973 8.63815 27.9166 8.63815C26.5359 8.63815 25.4166 9.74313 25.4166 11.1062C25.4166 12.4693 26.5359 13.5742 27.9166 13.5742Z" fill="#40CB81"/>
</svg>
